<?xml version="1.0" standalone="no"?>
<!DOCTYPE svg PUBLIC "-//W3C//DTD SVG 20010904//EN"
 "http://www.w3.org/TR/2001/REC-SVG-20010904/DTD/svg10.dtd">
<svg version="1.0" xmlns="http://www.w3.org/2000/svg"
 width="96.000000pt" height="96.000000pt" viewBox="0 0 96.000000 96.000000"
 preserveAspectRatio="xMidYMid meet">
<metadata>
Created by potrace 1.14, written by Peter Selinger 2001-2017
</metadata>
<g transform="translate(0.000000,96.000000) scale(0.100000,-0.100000)"
fill="#000000" stroke="none">
<path d="M374 855 c-180 -54 -295 -220 -281 -407 9 -115 73 -224 175 -296 18
-13 32 -21 32 -17 0 3 10 -1 23 -9 73 -46 221 -45 320 2 203 95 283 336 179
538 -24 46 -93 124 -110 124 -7 0 -12 4 -12 8 0 11 -83 48 -138 62 -52 13
-134 11 -188 -5z m248 -47 c91 -42 136 -86 181 -178 28 -57 32 -74 32 -150 0
-70 -5 -95 -26 -140 -114 -245 -412 -292 -601 -95 -11 11 -34 49 -51 85 -28
57 -32 74 -32 150 0 71 4 94 26 141 31 64 87 131 140 165 92 58 232 67 331 22z"/>
<path d="M229 610 c-1 -3 -2 -48 -3 -100 -3 -158 3 -163 207 -165 95 0 147 3
148 10 1 5 2 54 3 109 1 89 -1 101 -21 122 -12 13 -28 25 -35 25 -46 4 -298 4
-299 -1z"/>
<path d="M670 575 c-53 -41 -54 -43 -56 -94 -1 -52 -1 -53 51 -92 28 -21 56
-39 61 -39 10 0 13 255 3 264 -2 2 -29 -15 -59 -39z"/>
</g>
</svg>
