<?xml version="1.0" standalone="no"?>
<!DOCTYPE svg PUBLIC "-//W3C//DTD SVG 20010904//EN"
 "http://www.w3.org/TR/2001/REC-SVG-20010904/DTD/svg10.dtd">
<svg version="1.0" xmlns="http://www.w3.org/2000/svg"
 width="1552.000000pt" height="1552.000000pt" viewBox="0 0 1552.000000 1552.000000"
 preserveAspectRatio="xMidYMid meet">
<metadata>
Created by potrace 1.14, written by Peter Selinger 2001-2017
</metadata>
<g transform="translate(0.000000,1552.000000) scale(0.100000,-0.100000)"
fill="#000000" stroke="none">
<path d="M5824 14765 c-34 -14 -65 -68 -66 -116 -1 -42 -10 -43 -38 -3 -43 64
-106 81 -155 42 -52 -41 -61 -110 -23 -182 18 -34 65 -75 95 -82 15 -3 33 -7
38 -8 6 -2 -21 -13 -58 -25 -37 -13 -73 -29 -80 -35 -6 -7 -19 -11 -28 -9 -17
5 -224 -61 -244 -77 -7 -6 -37 -17 -66 -26 -78 -21 -81 -22 -171 -62 -33 -14
-58 -31 -58 -39 0 -12 -8 -14 -35 -9 -58 11 -104 -3 -145 -44 -21 -21 -41 -52
-45 -70 -6 -28 -9 -30 -23 -17 -10 8 -24 17 -33 20 -19 6 -188 -67 -239 -103
-28 -20 -31 -27 -27 -57 7 -40 22 -62 53 -73 18 -7 73 -120 141 -288 3 -7 -17
1 -43 17 -27 16 -67 32 -89 34 -41 3 -141 -17 -161 -34 -8 -6 -21 9 -42 50
-24 46 -29 69 -27 107 4 58 -21 94 -66 94 -29 0 -214 -101 -236 -128 -7 -9
-13 -28 -13 -42 0 -14 6 -32 13 -39 10 -12 8 -13 -8 -6 -32 12 -85 23 -98 21
-88 -16 -140 -51 -177 -119 -47 -87 -34 -254 29 -380 l30 -57 -27 6 c-35 9
-36 9 -38 43 -3 45 -38 115 -73 149 -37 35 -109 56 -162 47 -37 -6 -144 -64
-164 -88 -5 -7 -28 -25 -50 -42 -107 -79 -135 -108 -135 -137 0 -21 -4 -24
-28 -20 -21 3 -37 -3 -54 -20 -40 -36 -119 -102 -134 -111 -8 -4 -14 -15 -14
-23 0 -8 -10 -18 -22 -23 -30 -11 -208 -181 -208 -198 0 -7 -6 -13 -14 -13
-14 0 -167 -149 -193 -187 -25 -37 -10 -88 32 -108 20 -9 39 -14 44 -11 4 3
17 -5 27 -17 11 -12 55 -62 99 -112 43 -49 88 -101 99 -114 20 -23 20 -23 -18
3 -35 24 -55 29 -108 29 -12 0 -18 7 -18 22 0 51 -67 133 -129 157 -41 16 -96
11 -148 -12 -53 -23 -109 -78 -218 -215 -22 -27 -45 -53 -51 -57 -19 -12 -26
-59 -14 -89 12 -28 33 -40 80 -44 17 -2 73 -50 183 -158 86 -85 157 -157 157
-159 0 -2 -16 -4 -34 -5 -29 -1 -45 8 -93 54 -186 176 -220 204 -263 218 -114
36 -221 -19 -278 -144 -21 -45 -26 -72 -26 -136 0 -50 5 -89 14 -105 12 -23
10 -22 -24 8 -38 33 -70 40 -96 19 -37 -30 -300 -451 -302 -483 0 -10 2 -31 6
-45 7 -23 4 -27 -21 -32 -68 -14 -145 -120 -157 -215 -9 -74 25 -171 89 -257
82 -109 251 -197 378 -198 82 0 134 19 181 67 77 80 86 197 26 319 -34 69 -64
93 -104 83 -52 -13 -66 -47 -46 -115 14 -50 -2 -64 -63 -58 -49 4 -205 75
-228 103 -10 12 -8 13 12 6 48 -18 117 5 143 48 21 37 28 87 15 112 -8 15 -7
24 4 36 24 27 26 72 4 94 -27 26 -46 63 -39 74 6 10 67 -32 325 -228 16 -12
27 -31 27 -44 0 -32 45 -74 79 -74 24 0 81 44 81 63 0 3 22 41 50 84 27 43 50
90 50 104 0 37 -42 73 -84 71 -27 -1 -47 9 -93 46 -33 26 -74 58 -92 72 -18
14 -38 30 -44 35 -7 6 -42 34 -80 64 -63 50 -75 71 -41 71 8 0 27 -6 42 -14
41 -21 82 -9 97 28 7 17 11 35 8 39 -3 5 5 6 18 2 33 -11 78 -8 94 5 10 8 14
1 20 -37 19 -132 113 -232 219 -235 77 -1 140 59 149 143 4 45 13 59 40 59 51
1 99 70 99 140 0 32 4 50 12 48 28 -6 64 16 99 61 21 27 46 57 55 68 60 66
112 134 130 168 21 42 38 110 33 134 -2 10 3 9 21 -3 41 -29 61 -20 152 70 47
47 86 89 86 93 0 5 11 16 24 25 43 28 186 168 186 182 0 8 8 14 18 14 9 0 38
19 64 43 87 80 161 142 189 160 16 11 29 23 29 28 0 5 6 9 13 9 7 0 19 9 27
20 8 11 20 20 27 20 7 0 13 4 13 8 0 4 12 15 28 24 48 29 119 103 141 146 27
53 37 121 22 162 -11 32 -11 32 12 16 35 -26 105 -55 147 -62 27 -4 51 0 85
15 69 30 106 78 120 154 l7 37 25 -20 c14 -11 34 -20 44 -20 9 0 75 34 146 75
126 74 193 123 193 143 0 5 7 15 15 22 8 7 15 21 15 31 0 11 5 19 10 19 6 0
10 -4 10 -10 0 -15 53 -37 75 -31 29 9 156 72 188 94 18 12 27 27 27 45 0 20
3 23 9 12 14 -20 68 -16 126 10 94 42 130 58 215 90 47 18 103 41 125 50 22
10 86 32 143 50 57 18 110 39 118 47 8 8 20 13 28 10 12 -5 189 43 231 62 11
6 68 20 127 33 59 12 117 30 130 39 31 24 29 82 -5 117 -23 24 -40 75 -61 183
-2 13 -16 80 -31 149 -15 69 -29 133 -30 143 -2 9 3 33 11 53 12 29 13 42 4
64 -19 45 -53 53 -137 31 l-71 -19 29 40 c90 126 7 306 -117 253z m32 -480 c3
-14 3 -37 -2 -52 l-7 -28 -7 30 c-11 45 -11 75 0 75 5 0 12 -11 16 -25z m-262
-107 c8 -29 29 -105 45 -168 17 -63 39 -146 50 -184 18 -66 19 -96 0 -96 -9 0
-30 62 -85 255 -19 66 -41 143 -50 172 -9 29 -13 57 -9 63 15 24 34 7 49 -42z
m-290 -74 c4 -14 4 -35 0 -47 -6 -19 -9 -17 -19 18 -6 22 -10 43 -8 48 8 15
21 6 27 -19z m-567 -226 c-3 -7 -5 -2 -5 12 0 14 2 19 5 13 2 -7 2 -19 0 -25z
m349 -5 c4 -21 10 -42 14 -48 9 -12 80 -222 86 -252 2 -13 2 -23 -2 -23 -3 0
-51 45 -105 99 -55 54 -115 106 -134 115 -26 12 -35 23 -35 41 0 21 3 23 34
18 42 -7 91 20 109 59 16 38 25 35 33 -9z m868 -18 c5 -47 5 -49 -8 -21 -7 15
-11 39 -8 52 6 34 10 27 16 -31z m-520 -180 c6 -28 5 -29 -9 -11 -8 11 -15 34
-14 50 0 26 2 28 8 11 4 -11 11 -33 15 -50z m-1358 -267 c31 -62 72 -141 90
-175 26 -50 29 -61 14 -53 -12 6 -28 6 -49 -1 -29 -10 -43 -32 -45 -74 -2 -33
-15 -46 -34 -36 -43 24 -149 148 -165 192 -5 15 -3 15 24 2 61 -30 139 11 153
80 8 39 -8 95 -39 141 -13 20 -20 36 -16 36 5 0 35 -51 67 -112z m354 -94 c8
-16 16 -38 18 -49 3 -18 2 -18 -11 -5 -22 22 -50 93 -35 88 7 -3 19 -18 28
-34z m-1000 -291 c23 -46 23 -49 -4 -18 -27 31 -32 45 -18 45 5 0 15 -12 22
-27z m-254 -117 c0 0 30 -44 65 -96 35 -52 66 -97 69 -100 24 -22 129 -193
124 -201 -5 -9 -53 50 -116 145 -7 10 -27 37 -44 60 -38 51 -127 176 -138 195
-7 10 -3 12 15 6 13 -4 24 -8 25 -9z m442 -130 c7 -14 12 -38 10 -53 -3 -25
-6 -23 -41 31 -21 31 -35 61 -31 67 9 15 46 -12 62 -45z m-639 -99 c11 -18 31
-46 45 -62 15 -17 43 -55 63 -85 21 -30 42 -60 48 -66 5 -6 17 -22 25 -34 8
-12 20 -28 26 -34 6 -6 18 -23 27 -37 14 -21 15 -28 4 -43 -12 -16 -19 -10
-72 61 -51 66 -84 109 -158 203 -64 81 -77 100 -77 114 0 30 47 19 69 -17z
m-221 -228 c44 -55 48 -64 31 -74 -16 -11 -105 97 -94 115 11 18 20 11 63 -41z
m191 -241 c9 -11 26 -32 38 -46 13 -15 23 -33 23 -39 0 -26 -12 -17 -80 62
-33 38 -39 50 -29 62 11 12 14 12 22 -3 5 -9 17 -25 26 -36z m-606 -192 c10
-8 20 -23 22 -35 4 -20 2 -20 -26 6 -40 39 -38 60 4 29z m239 -219 c12 -23 20
-67 13 -67 -4 0 -27 21 -52 47 -43 43 -45 47 -28 59 16 12 21 11 38 -3 10 -10
23 -26 29 -36z"/>
<path d="M7617 14716 c-36 -13 -52 -24 -89 -56 -27 -25 -67 -113 -86 -192
l-17 -73 -3 79 c-2 60 1 82 13 96 8 9 15 35 15 58 0 65 -23 75 -157 67 -59 -3
-124 -8 -143 -10 -19 -2 -64 -7 -100 -10 -137 -13 -164 -17 -187 -32 -13 -8
-24 -22 -24 -29 -1 -8 -2 -20 -3 -26 -3 -19 16 -60 37 -80 9 -10 17 -33 18
-50 0 -18 2 -60 4 -93 l4 -60 -14 55 c-43 173 -142 275 -264 274 -89 0 -152
-38 -191 -112 -85 -164 -57 -429 63 -603 26 -38 86 -91 107 -94 3 -1 22 -4 42
-8 143 -29 268 125 268 332 0 57 8 31 15 -50 5 -60 3 -83 -9 -107 -17 -33 -13
-84 10 -102 7 -6 28 -12 46 -12 39 -2 190 12 199 18 4 2 63 6 133 9 133 5 163
14 172 53 9 34 -5 92 -21 92 -10 0 -15 12 -16 38 0 20 -2 55 -5 76 -2 22 -1
37 1 34 4 -4 28 -80 38 -124 2 -6 10 -23 20 -37 9 -15 17 -30 17 -34 0 -4 18
-24 40 -45 84 -78 197 -77 279 2 49 48 77 100 101 193 l19 72 -5 -160 c-10
-321 -10 -313 -32 -332 -40 -34 -32 -115 12 -129 22 -7 87 -12 200 -15 79 -1
95 9 103 68 4 34 2 43 -20 60 -26 20 -30 35 -28 121 l1 53 34 -5 c72 -12 148
31 190 105 32 58 66 153 66 186 0 12 5 23 11 23 5 0 8 -3 6 -7 -3 -5 -8 -39
-12 -78 -4 -51 -13 -80 -32 -107 -20 -29 -24 -45 -19 -71 9 -50 34 -59 201
-73 44 -3 83 -8 86 -10 12 -7 147 -27 200 -29 32 -2 65 -8 75 -13 11 -5 39
-13 64 -18 25 -4 47 -8 50 -9 16 -5 79 -17 100 -19 14 -2 32 -6 40 -9 36 -15
224 -56 232 -51 5 3 16 0 24 -7 9 -7 21 -14 28 -16 6 -1 49 -14 95 -28 47 -14
94 -25 106 -25 12 0 25 -4 31 -9 5 -5 56 -25 113 -44 84 -29 109 -33 132 -25
35 12 54 66 37 103 -10 23 10 111 67 290 7 22 25 80 40 128 14 48 30 85 35 82
4 -3 18 7 29 21 21 26 28 79 13 100 -9 13 -140 64 -167 65 -11 0 -2 6 20 13
78 24 113 60 136 140 12 41 -6 100 -38 125 -51 41 -122 21 -167 -46 l-23 -33
-6 50 c-13 105 -74 152 -150 115 -67 -32 -94 -129 -58 -210 11 -25 31 -55 43
-65 22 -18 21 -18 -45 0 -37 11 -75 16 -83 13 -9 -3 -19 0 -23 6 -11 18 -191
64 -256 65 -16 1 -36 7 -43 14 -7 6 -19 12 -25 13 -7 0 -19 2 -27 4 -8 2 -28
6 -44 9 -16 3 -54 10 -84 17 -30 6 -63 8 -74 6 -11 -3 -30 0 -42 8 -11 7 -41
16 -66 20 -25 4 -54 9 -65 11 -11 2 -60 8 -109 14 -49 6 -92 13 -95 15 -4 2
-35 6 -71 10 -36 3 -72 8 -80 10 -29 9 -75 -11 -88 -38 -10 -22 -11 -35 -2
-62 6 -19 16 -35 21 -35 6 0 8 -3 6 -7 -3 -5 -8 -53 -12 -108 -7 -110 -15
-138 -15 -56 0 76 -28 199 -56 247 -14 23 -42 55 -62 71 -31 24 -46 28 -92 26
-117 -3 -177 -3 -238 1 -64 5 -110 -5 -124 -27 -4 -7 -8 -29 -8 -49 0 -29 6
-41 24 -53 22 -15 24 -21 22 -105 -1 -49 -6 -93 -10 -97 -5 -4 -7 -1 -3 9 8
22 -17 138 -42 190 -55 119 -180 183 -284 144z m-448 -268 c1 -35 4 -79 6 -98
2 -19 6 -100 9 -180 7 -165 -7 -165 -18 0 -4 58 -8 121 -10 140 -16 152 -17
200 -3 200 10 0 14 -17 16 -62z m529 -127 c-1 -105 -5 -188 -8 -186 -7 5 -12
101 -12 230 1 132 2 145 12 145 5 0 9 -75 8 -189z m1087 112 c-4 -38 -7 -76
-7 -85 0 -11 -5 -15 -14 -11 -14 5 -14 10 1 118 1 11 3 26 4 33 0 6 6 12 12
12 9 0 10 -19 4 -67z m-549 -85 c-4 -148 -23 -289 -36 -268 -4 7 -6 47 -5 89
6 143 16 305 21 313 18 28 23 -8 20 -134z m847 74 c-2 -15 -8 -52 -13 -82 -5
-30 -12 -73 -15 -95 -20 -139 -49 -282 -60 -293 -25 -28 -24 4 9 218 2 14 12
81 22 150 10 69 22 128 27 132 19 12 34 -3 30 -30z m-2449 -34 c4 -24 9 -61
12 -83 3 -22 7 -51 10 -65 2 -14 6 -59 10 -100 3 -41 7 -81 10 -88 2 -7 0 -11
-5 -7 -9 5 -14 29 -27 120 -3 22 -7 47 -9 55 -2 8 -7 47 -10 85 -4 39 -9 82
-11 98 -2 15 0 27 5 27 4 0 12 -19 15 -42z m2726 -22 c0 -13 -9 -34 -20 -47
-22 -27 -24 -20 -9 34 11 42 29 50 29 13z m286 -66 c1 -13 -3 -38 -7 -54 -5
-17 -11 -42 -14 -56 -21 -107 -92 -364 -102 -368 -21 -6 -16 35 28 230 22 101
42 192 44 203 16 72 17 76 33 73 10 -2 18 -14 18 -28z m272 -89 c-1 -16 -10
-34 -20 -40 -21 -13 -22 -6 -7 38 14 39 30 41 27 2z m-1171 -78 c-3 -21 -9
-62 -13 -90 -3 -29 -10 -53 -15 -53 -7 0 -4 75 6 125 2 11 4 28 4 38 1 9 6 17
12 17 7 0 9 -14 6 -37z m519 -209 c-13 -36 -15 -37 -15 -11 -1 15 5 36 11 47
19 29 21 10 4 -36z m537 -129 c-17 -51 -26 -58 -21 -17 2 22 25 62 35 62 1 0
-5 -20 -14 -45z"/>
<path d="M10578 14473 c-8 -10 -39 -88 -69 -174 -47 -137 -52 -160 -42 -182
14 -31 55 -44 87 -29 13 5 35 34 49 64 60 121 127 151 127 56 0 -95 -106 -265
-136 -217 -6 11 -64 12 -80 1 -18 -12 -44 -69 -44 -97 0 -25 13 -41 72 -88 32
-25 39 -55 26 -112 -6 -22 -11 -46 -12 -53 -1 -7 -8 -18 -14 -24 -7 -7 -12
-17 -12 -23 0 -6 -13 -24 -29 -39 -43 -41 -71 -33 -94 29 -28 73 -32 79 -57
92 -34 17 -79 -2 -96 -42 -27 -66 26 -201 100 -253 106 -74 239 -87 318 -31
31 23 38 24 38 5 0 -20 33 -119 45 -134 55 -71 148 -123 230 -130 82 -7 153
20 214 81 l51 51 0 -61 c0 -179 76 -319 212 -390 71 -37 196 -39 273 -5 81 36
131 135 89 176 -21 22 -52 20 -115 -7 -30 -13 -73 -25 -97 -26 -37 -2 -47 2
-77 32 -35 35 -39 48 -36 117 2 83 78 272 154 384 110 163 220 213 297 136 44
-44 52 -126 23 -234 -20 -78 -13 -110 28 -125 17 -6 35 -8 40 -5 18 11 8 -11
-14 -32 -40 -39 -115 -178 -148 -275 -26 -77 -32 -112 -34 -193 -2 -108 9
-163 50 -232 56 -95 143 -156 247 -172 147 -23 354 85 480 250 10 13 27 35 37
49 26 34 88 158 95 190 21 94 25 121 26 174 0 129 -49 239 -144 319 -99 84
-189 111 -296 89 -72 -14 -170 -59 -214 -98 -36 -31 -43 -32 -23 -2 58 89 145
236 152 256 11 35 -12 70 -52 77 -19 4 -39 2 -47 -5 -10 -8 -22 3 -55 52 -111
163 -301 209 -486 118 -105 -52 -221 -170 -272 -275 -20 -42 -33 -46 -33 -11
0 15 -7 39 -15 55 -14 28 -14 30 2 30 52 0 142 85 182 170 35 74 37 213 4 275
-44 83 -138 148 -233 161 -39 5 -48 11 -57 34 -6 17 -19 29 -36 32 -47 9 -68
-12 -108 -107 -45 -107 -51 -118 -43 -86 11 42 5 133 -12 183 -16 49 -75 119
-123 146 -35 20 -112 42 -148 42 -18 0 -33 4 -33 10 0 18 -44 50 -70 50 -15 0
-34 -8 -42 -17z m653 -472 c4 -44 -4 -81 -31 -136 -37 -75 -76 -119 -99 -110
-42 18 -68 22 -89 14 -25 -9 -63 -82 -58 -112 1 -10 24 -38 50 -62 l48 -44 -7
-52 c-12 -87 -80 -189 -126 -189 -24 0 -47 36 -62 96 -10 39 -28 62 -54 70 -2
0 7 27 18 60 33 92 31 191 -5 275 -5 12 -1 18 18 23 13 3 48 28 75 55 44 43
51 47 51 28 0 -27 9 -41 36 -55 40 -21 73 -3 102 53 46 91 128 144 133 86z
m1284 -827 c42 -16 50 -91 18 -174 -33 -88 -166 -288 -250 -375 -94 -98 -180
-139 -209 -100 -47 64 37 272 192 475 104 138 189 197 249 174z"/>
<path d="M2803 13213 c-30 -6 -72 -50 -81 -87 -12 -43 12 -131 43 -161 32 -31
55 -46 76 -51 69 -16 117 3 145 58 32 63 -4 178 -71 222 -25 17 -80 26 -112
19z"/>
<path d="M6764 12875 c-7 -17 38 -65 62 -65 7 0 14 -4 14 -9 0 -14 87 -44 105
-37 9 3 14 2 11 -3 -6 -9 95 -40 129 -40 34 0 185 -33 185 -41 0 -8 -2 -8 -90
-16 -36 -3 -72 -8 -80 -11 -8 -3 -37 -5 -65 -4 -27 1 -90 4 -140 6 -49 1 -110
10 -134 19 -24 9 -46 14 -49 12 -2 -3 -18 2 -34 10 -16 9 -37 13 -46 9 -9 -3
-13 -3 -9 1 9 10 -30 37 -43 29 -22 -13 -7 -37 49 -81 74 -57 125 -84 165 -88
17 -2 40 -8 51 -14 18 -9 50 -16 185 -38 l35 -6 -30 -16 c-17 -9 -33 -15 -37
-14 -4 1 -58 -14 -120 -32 -117 -35 -162 -46 -188 -47 -8 -1 -48 -6 -88 -11
-59 -9 -72 -14 -70 -27 5 -28 97 -26 227 6 64 15 118 30 121 33 3 3 16 6 30 6
47 2 210 28 210 34 0 7 194 3 242 -4 45 -7 88 -26 88 -38 0 -11 -22 -19 -145
-58 -55 -18 -102 -35 -105 -38 -3 -4 -12 -8 -20 -10 -8 -2 -46 -18 -85 -37
-38 -18 -80 -36 -92 -39 -13 -4 -23 -12 -23 -18 0 -6 -3 -9 -6 -6 -3 3 -42
-11 -87 -31 -45 -21 -121 -55 -169 -77 -47 -21 -84 -42 -82 -46 3 -4 -2 -5
-10 -2 -19 7 -115 -24 -135 -43 -9 -10 -11 -17 -3 -25 7 -7 40 -4 109 12 54
12 107 23 118 24 24 3 180 38 320 71 55 13 118 26 140 29 39 6 39 6 -20 -24
-33 -17 -95 -44 -137 -61 -43 -17 -78 -35 -78 -39 0 -3 -6 -7 -14 -7 -7 0 -34
-9 -59 -21 -41 -19 -138 -49 -235 -72 -44 -11 -49 -17 -29 -37 9 -10 17 -12
17 -7 0 7 16 9 39 7 41 -4 145 21 170 41 8 6 16 10 18 8 6 -6 113 19 118 28 3
4 13 6 23 3 9 -2 53 7 97 20 44 14 101 30 127 37 28 7 45 17 41 23 -3 5 -1 7
5 3 10 -6 50 6 232 68 41 15 79 25 84 23 5 -2 10 -14 10 -28 1 -23 -2 -26 -44
-28 -25 -1 -70 -9 -100 -17 -58 -16 -193 -81 -198 -96 -2 -4 -7 -6 -12 -3 -4
2 -52 -18 -106 -46 -113 -58 -225 -83 -419 -95 -86 -5 -118 -11 -122 -21 -3
-8 -4 -15 -2 -17 14 -12 172 -12 251 0 51 8 131 17 178 20 47 2 94 7 105 9 11
2 26 0 34 -4 15 -9 -6 -27 -61 -52 -15 -6 -25 -16 -21 -22 3 -6 2 -7 -4 -4 -5
3 -34 -1 -64 -9 -115 -32 -214 -55 -327 -74 -125 -22 -143 -30 -123 -54 15
-18 201 -22 266 -5 22 5 54 12 70 15 17 2 52 9 78 14 73 15 90 13 83 -7 -12
-32 -51 -83 -66 -88 -28 -9 -119 -103 -155 -159 -67 -105 -68 -201 -3 -269 52
-53 99 -87 122 -87 11 0 32 -11 46 -23 57 -51 243 -316 266 -377 8 -20 18 -44
45 -105 12 -27 23 -57 24 -65 1 -8 11 -46 23 -85 26 -86 62 -248 57 -253 -2
-3 -36 4 -76 13 -89 22 -123 26 -279 32 -112 4 -300 -10 -324 -25 -5 -3 -21
-6 -35 -7 -32 -3 -300 -50 -361 -64 -155 -34 -335 -42 -549 -22 -63 6 -117 9
-119 6 -3 -2 -12 0 -21 5 -10 5 -35 11 -57 14 -61 8 -153 27 -229 48 -38 11
-83 23 -100 28 -102 28 -280 97 -317 123 -15 12 -32 16 -40 12 -7 -5 -10 -4
-5 0 9 11 -76 65 -101 65 -43 0 -53 -21 -55 -119 -1 -55 -6 -96 -12 -98 -6 -2
-24 9 -40 25 -41 38 -106 87 -127 95 -34 12 -48 -24 -48 -121 l0 -92 -50 20
c-44 17 -51 18 -65 4 -8 -8 -15 -31 -15 -50 0 -42 -9 -42 -92 -9 -35 14 -74
26 -88 27 -14 2 -27 6 -30 9 -3 4 -61 25 -130 48 -69 23 -134 46 -145 52 -32
15 -187 56 -220 58 -34 2 -192 -27 -217 -40 -16 -8 -17 -49 -15 -533 1 -288
-1 -522 -4 -520 -4 2 -7 -14 -7 -36 -1 -29 3 -38 11 -33 8 5 8 2 -1 -9 -7 -9
-10 -32 -7 -59 10 -86 12 -138 4 -134 -4 3 -8 -369 -8 -826 -1 -458 -4 -835
-6 -839 -3 -4 -20 -11 -38 -14 -37 -7 -53 -30 -60 -86 -2 -19 -14 -80 -25
-135 -11 -55 -21 -116 -20 -135 0 -42 -11 -121 -20 -134 -10 -17 -9 -405 1
-399 6 3 7 1 3 -5 -4 -7 -2 -39 4 -74 6 -34 12 -71 12 -82 1 -43 63 -269 80
-292 4 -6 5 -14 1 -17 -3 -4 2 -16 12 -27 10 -11 15 -20 12 -20 -3 0 3 -19 13
-42 17 -37 20 -67 20 -210 0 -93 -3 -168 -7 -168 -14 1 -39 24 -57 53 -10 15
-25 27 -32 27 -8 0 -14 6 -14 13 0 8 -12 24 -26 38 -48 45 -48 45 -64 249 -19
255 -20 301 -21 523 0 119 -3 217 -7 217 -4 0 -7 57 -8 128 -1 70 -4 154 -7
187 -3 33 -6 70 -6 83 -1 13 -5 21 -10 18 -4 -3 -6 5 -4 17 5 36 -33 286 -56
367 -12 41 -27 97 -32 124 -13 62 -115 280 -128 272 -5 -3 -7 2 -4 12 2 11 -3
26 -12 36 -9 9 -14 16 -10 16 3 0 -9 20 -27 44 -18 25 -53 72 -78 105 -24 34
-48 61 -53 61 -4 0 -6 4 -3 8 5 9 -60 96 -121 160 -22 23 -38 44 -36 46 8 8
-149 156 -159 150 -6 -4 -8 -3 -5 3 8 13 -27 46 -38 36 -4 -5 -5 -3 -2 3 4 6
-4 21 -17 33 -25 23 -65 22 -85 -3 -11 -14 -32 -89 -34 -126 -1 -14 -5 -27 -8
-30 -9 -8 -41 -184 -43 -234 0 -24 -4 -42 -8 -40 -4 3 -10 -17 -13 -43 -3 -27
-11 -77 -17 -113 -6 -36 -12 -81 -13 -100 -2 -19 -7 -44 -11 -55 -10 -25 -12
-373 -2 -438 4 -26 14 -71 22 -98 14 -45 14 -50 1 -39 -9 7 -41 58 -72 114
-75 134 -98 167 -108 158 -5 -4 -5 -2 -2 4 7 12 -41 101 -142 264 -19 30 -39
60 -45 65 -6 6 -16 19 -22 30 -6 11 -26 47 -44 80 -18 33 -39 67 -47 75 -7 8
-57 70 -109 138 -53 67 -100 122 -105 122 -5 0 -8 4 -7 8 5 15 -153 193 -164
186 -6 -4 -8 -3 -5 3 3 5 -7 24 -23 42 -17 18 -30 29 -30 25 0 -4 -11 7 -24
25 -35 47 -138 141 -148 135 -4 -3 -8 1 -8 8 0 8 -24 31 -52 53 -29 21 -53 37
-53 35 0 -3 -14 9 -30 26 -40 41 -155 115 -168 107 -6 -3 -7 -1 -3 5 7 12 -25
32 -141 92 -46 23 -87 39 -92 36 -5 -4 -11 -2 -13 2 -5 14 -194 92 -222 92
-22 0 -26 -4 -26 -27 1 -52 18 -168 45 -308 2 -11 10 -56 18 -100 25 -136 74
-305 89 -305 5 0 6 -5 3 -11 -4 -5 -2 -22 3 -37 6 -15 14 -36 18 -47 4 -11 6
-24 5 -29 -4 -17 81 -196 90 -190 5 3 6 -2 3 -10 -7 -18 65 -158 77 -150 5 3
6 -2 3 -11 -6 -15 15 -55 43 -83 7 -8 20 -27 28 -42 8 -16 21 -33 28 -37 7 -4
35 -35 62 -67 28 -33 72 -84 99 -113 28 -30 60 -69 73 -88 13 -19 29 -38 37
-42 8 -4 34 -27 59 -50 25 -23 48 -39 52 -35 5 4 5 2 2 -4 -8 -15 250 -277
264 -268 7 4 9 3 6 -3 -8 -13 72 -85 84 -77 5 3 8 1 7 -4 -4 -13 133 -123 144
-116 5 3 7 2 6 -3 -2 -4 20 -29 47 -56 45 -43 47 -46 20 -37 -16 6 -35 16 -42
21 -7 6 -18 7 -24 3 -7 -4 -9 -3 -6 3 3 5 -35 32 -86 58 -51 26 -112 60 -137
74 -62 36 -230 102 -241 95 -5 -3 -9 -1 -9 5 0 5 -19 14 -43 19 -23 5 -91 23
-152 40 -95 27 -217 50 -490 92 -87 13 -238 22 -257 15 -29 -11 -42 -59 -28
-102 12 -38 81 -149 104 -168 7 -5 38 -45 70 -87 32 -43 63 -75 69 -71 5 3 7
1 4 -4 -8 -13 28 -60 151 -193 113 -122 142 -150 153 -150 5 0 9 -5 9 -10 0
-15 147 -158 180 -175 15 -8 31 -11 35 -7 5 4 5 2 1 -5 -6 -11 49 -62 60 -55
2 1 16 -11 32 -28 15 -16 33 -31 41 -32 14 -3 40 -21 65 -44 23 -22 77 -45 88
-38 6 4 8 3 5 -3 -6 -10 109 -88 168 -115 16 -7 37 -20 46 -30 19 -18 187
-101 207 -101 6 0 12 -3 12 -7 0 -13 78 -42 91 -35 7 5 10 4 6 -2 -4 -6 8 -16
26 -23 17 -6 50 -20 72 -30 61 -28 148 -62 165 -65 8 -1 22 -5 30 -8 8 -3 40
-13 70 -23 30 -9 72 -23 92 -30 21 -8 55 -16 75 -19 38 -5 123 -20 198 -35 22
-4 112 -26 200 -49 88 -23 165 -39 171 -37 6 2 15 1 20 -4 5 -5 34 -11 64 -14
173 -17 167 -15 224 -70 77 -74 120 -111 127 -109 4 1 34 -25 68 -57 l61 -60
-1 -95 c-1 -52 -5 -97 -9 -100 -10 -6 -68 23 -77 39 -5 7 -27 24 -50 37 -23
13 -86 52 -140 85 -54 34 -127 77 -163 95 -36 19 -67 36 -70 39 -8 9 -213 98
-250 109 -84 24 -242 52 -324 57 -49 3 -92 6 -95 9 -4 2 -74 6 -156 10 -83 4
-192 10 -244 13 -52 4 -172 7 -268 7 -95 0 -173 3 -173 6 0 3 -15 4 -33 1 -85
-11 -73 -91 41 -266 26 -39 49 -76 52 -82 20 -43 155 -207 256 -310 111 -113
132 -129 157 -125 5 1 6 -3 3 -7 -13 -21 275 -188 337 -196 12 -2 29 -6 37 -9
8 -3 44 -13 80 -21 36 -8 114 -27 175 -41 149 -36 230 -52 290 -60 104 -12
202 -25 275 -35 167 -24 244 -30 450 -36 203 -6 647 8 785 25 63 7 115 -8 144
-43 8 -9 19 -16 25 -16 6 0 16 -8 22 -18 14 -21 193 -145 211 -145 7 0 10 -4
7 -9 -3 -4 -1 -8 3 -8 5 0 32 -18 62 -40 29 -22 98 -65 153 -96 105 -59 119
-84 37 -64 -24 6 -53 13 -64 15 -40 8 -92 24 -180 56 -105 37 -186 60 -345 94
-208 46 -360 51 -565 20 -119 -19 -338 -82 -330 -96 3 -4 -3 -5 -12 -3 -18 5
-183 -75 -214 -102 -8 -8 -19 -14 -24 -14 -11 0 -113 -86 -157 -133 -21 -22
-35 -44 -31 -50 3 -6 1 -7 -4 -4 -12 7 -86 -97 -86 -120 0 -7 -3 -13 -7 -13
-11 0 -40 -69 -40 -94 0 -13 7 -40 15 -60 14 -32 19 -36 53 -36 20 0 64 4 97
10 165 26 380 36 448 22 29 -6 81 -16 117 -22 36 -6 83 -18 106 -25 49 -16
327 -49 354 -42 11 3 20 0 20 -5 0 -8 32 -9 98 -4 53 4 158 11 232 16 74 5
164 14 200 20 59 10 222 52 260 67 8 4 17 7 20 8 3 1 20 6 38 10 17 4 32 11
32 16 0 5 4 8 8 7 17 -6 111 45 105 56 -3 6 -2 8 2 3 5 -4 18 -1 30 7 39 25
157 56 267 69 59 7 109 10 110 5 2 -4 17 -9 33 -11 17 -2 46 -11 66 -19 20 -9
47 -19 60 -23 13 -4 26 -11 29 -15 3 -4 48 -24 100 -44 52 -21 115 -47 140
-58 25 -12 51 -21 58 -21 6 0 12 -3 12 -6 0 -4 24 -17 53 -31 72 -33 102 -56
82 -64 -26 -9 -480 -6 -536 4 -117 22 -463 42 -624 36 -258 -11 -463 -36 -451
-55 2 -3 -11 -6 -30 -7 -19 0 -44 -5 -56 -11 -13 -6 -53 -23 -90 -39 -38 -15
-68 -30 -68 -34 0 -4 -6 -7 -12 -7 -21 0 -167 -84 -182 -104 -7 -10 -15 -16
-19 -13 -7 7 -134 -120 -204 -203 -54 -65 -119 -174 -125 -208 -2 -11 -8 -24
-15 -30 -25 -21 -63 -206 -62 -302 1 -93 15 -110 84 -103 11 1 25 5 30 10 15
12 163 59 206 66 22 4 39 10 39 15 0 4 150 6 333 3 520 -9 695 -9 786 -2 84 8
244 41 291 60 14 6 32 12 40 13 67 10 330 124 330 144 0 4 6 8 13 8 16 0 96
46 123 71 11 11 29 22 40 26 10 3 36 22 57 41 21 19 41 35 45 35 4 0 19 10 32
23 55 48 127 104 163 126 20 12 37 26 37 31 0 5 24 20 53 35 126 63 157 81
150 90 -4 4 -3 5 4 1 7 -4 27 1 45 10 18 10 69 25 113 34 82 17 149 11 208
-18 12 -6 102 -36 200 -68 104 -33 176 -62 174 -68 -3 -10 -165 -71 -267 -100
-25 -7 -79 -25 -120 -40 -41 -15 -82 -29 -90 -31 -14 -3 -120 -42 -223 -83
-26 -10 -45 -20 -43 -23 2 -2 -10 -5 -27 -5 -30 -1 -64 -13 -97 -33 -8 -5 -62
-29 -120 -53 -58 -23 -107 -46 -108 -50 -2 -5 -8 -6 -13 -2 -5 3 -12 -1 -15
-10 -3 -8 -11 -13 -18 -10 -13 5 -69 -20 -61 -27 2 -3 -6 -5 -18 -6 -24 -2
-290 -132 -344 -168 -18 -12 -30 -25 -25 -30 4 -5 2 -5 -4 -2 -15 9 -126 -42
-119 -54 4 -5 -1 -6 -9 -3 -19 7 -177 -86 -169 -100 3 -5 1 -6 -5 -2 -21 13
-350 -179 -489 -286 -119 -91 -143 -244 -75 -476 8 -30 21 -60 28 -67 7 -7 10
-15 7 -18 -11 -12 52 -104 114 -164 56 -56 68 -63 103 -63 32 0 45 6 67 31 16
17 45 48 65 69 20 21 33 42 30 46 -4 4 -2 4 4 1 14 -8 87 66 77 79 -5 5 -4 6
2 1 5 -5 46 28 95 76 81 81 178 171 210 195 8 6 62 51 120 100 58 49 128 105
155 126 28 21 52 41 55 45 4 5 33 26 195 136 22 15 39 31 37 37 -1 5 2 7 7 3
9 -5 40 13 161 94 14 10 84 50 155 91 72 41 132 77 135 80 3 3 10 6 16 7 15 3
112 48 144 67 14 8 48 25 75 39 44 21 143 72 200 104 11 6 36 18 55 26 19 9
46 23 60 31 14 9 73 39 132 67 61 29 105 56 101 62 -4 6 -1 7 6 2 8 -4 37 4
69 20 252 120 244 118 319 83 27 -11 69 -32 95 -45 27 -13 53 -21 60 -17 7 4
8 3 4 -4 -4 -7 -3 -12 3 -12 14 0 298 -139 342 -168 20 -12 46 -24 58 -25 11
-1 23 -7 25 -14 3 -7 15 -13 26 -13 11 0 20 -4 20 -9 0 -5 60 -40 133 -77 72
-36 175 -89 227 -117 52 -27 113 -59 135 -70 22 -11 52 -29 66 -38 14 -10 29
-16 33 -12 3 3 6 2 6 -4 0 -16 69 -55 82 -47 6 4 8 3 5 -2 -3 -6 20 -25 51
-44 31 -19 84 -53 116 -77 32 -23 64 -40 69 -36 6 3 7 1 3 -5 -4 -7 -3 -12 2
-12 10 0 209 -145 236 -173 10 -9 21 -17 26 -17 4 0 28 -19 52 -43 24 -23 66
-60 94 -82 27 -21 61 -51 75 -65 94 -92 129 -121 140 -114 7 4 9 3 6 -2 -3 -6
61 -76 142 -157 81 -81 145 -147 142 -147 -3 0 13 -18 34 -40 22 -22 45 -38
53 -35 7 2 11 1 8 -4 -8 -13 16 -20 48 -14 36 7 173 141 204 199 38 72 92 290
77 314 -3 5 -1 10 4 10 15 0 14 29 -3 92 -19 71 -37 109 -49 101 -6 -4 -7 -1
-2 7 5 9 -8 27 -41 56 -45 41 -53 45 -70 43 -4 0 -10 4 -13 9 -13 21 -115 91
-124 85 -6 -3 -7 -1 -3 5 4 7 3 12 -1 12 -5 0 -64 31 -132 70 -68 38 -128 67
-134 63 -5 -3 -7 -2 -4 4 4 6 -10 19 -31 29 -20 10 -39 22 -42 25 -3 3 -59 34
-124 69 -66 34 -156 84 -200 109 -121 69 -255 133 -266 126 -6 -3 -10 -1 -10
4 0 6 -15 17 -32 24 -18 8 -53 23 -78 34 -148 66 -237 104 -250 108 -3 0 -19
9 -37 18 -18 9 -40 19 -50 20 -10 2 -31 10 -48 17 -16 6 -68 25 -114 42 -46
16 -96 35 -111 43 -15 8 -38 17 -51 20 -36 8 -356 114 -417 137 -29 11 -55 25
-58 29 -5 9 64 45 79 41 4 -1 24 5 45 13 20 9 53 20 72 25 19 5 87 24 150 44
135 41 192 44 293 15 39 -12 80 -22 90 -22 9 -1 17 -4 17 -7 0 -4 19 -17 43
-30 23 -13 72 -43 109 -66 36 -24 69 -41 72 -38 3 2 4 1 1 -3 -3 -3 12 -18 32
-32 21 -15 56 -43 77 -64 22 -20 44 -37 48 -37 5 0 19 -10 31 -23 40 -41 97
-78 109 -71 6 4 8 3 5 -3 -4 -5 24 -30 61 -55 77 -53 242 -148 255 -148 5 0
23 -6 40 -14 93 -40 139 -56 147 -51 6 3 10 2 10 -2 0 -7 76 -31 155 -48 17
-4 39 -9 50 -11 135 -30 365 -35 880 -21 199 5 265 3 323 -8 96 -19 203 -51
273 -82 55 -24 58 -24 83 -8 14 10 29 29 33 43 8 35 -5 216 -16 220 -6 2 -8 9
-5 16 7 17 -29 123 -68 200 -40 80 -117 188 -129 181 -5 -3 -7 0 -4 7 7 18
-91 121 -106 112 -7 -4 -9 -3 -6 3 4 6 -13 27 -38 48 -25 20 -45 34 -45 31 0
-3 -12 6 -26 19 -15 14 -30 22 -34 20 -5 -3 -10 -1 -12 3 -8 23 -183 116 -198
107 -5 -3 -10 -1 -12 5 -4 12 -110 50 -148 53 -16 1 -26 5 -24 9 6 9 -112 26
-231 34 -178 12 -465 16 -465 7 0 -4 -44 -8 -98 -8 -53 0 -115 -3 -137 -7 -44
-7 -159 -17 -218 -17 -28 -1 -36 -4 -31 -14 6 -9 4 -9 -7 -1 -9 7 -39 9 -82 5
-37 -4 -73 -4 -80 0 -11 6 -153 18 -214 19 -13 0 -23 4 -23 8 0 12 255 130
318 147 12 4 19 11 16 17 -4 6 -2 8 3 5 14 -9 103 22 103 36 0 6 3 8 6 5 3 -4
29 4 57 16 115 51 190 55 382 20 42 -7 140 -52 187 -86 25 -18 155 -69 223
-89 75 -21 153 -40 185 -45 171 -25 321 -39 422 -39 31 0 54 -4 51 -8 -6 -9
56 -4 227 19 58 8 120 14 138 14 18 0 38 3 45 7 7 4 21 9 32 10 11 2 27 6 35
9 8 4 26 8 40 9 14 1 78 10 142 20 122 19 220 15 418 -17 166 -26 179 -23 201
53 11 35 10 45 -9 85 -45 92 -163 254 -186 254 -3 0 -20 16 -37 34 -27 31
-159 126 -175 126 -3 0 -19 9 -35 21 -18 12 -38 19 -50 16 -12 -3 -18 -3 -15
1 9 8 -72 44 -84 37 -6 -3 -10 -2 -10 3 0 10 -106 45 -217 72 -166 39 -415 49
-523 21 -19 -6 -59 -13 -87 -16 -29 -3 -83 -15 -120 -26 -38 -11 -79 -22 -93
-25 -32 -6 -213 -67 -220 -74 -3 -3 -14 -6 -25 -8 -11 -2 -47 -9 -80 -17 -131
-31 -152 -18 -54 33 110 57 160 92 153 104 -4 7 -3 8 4 4 13 -8 142 78 307
203 l100 75 80 -2 c44 -2 98 -5 120 -8 145 -16 780 -32 812 -20 10 4 47 9 83
11 73 4 126 9 250 24 47 6 128 15 180 21 52 5 124 16 160 24 36 9 146 34 245
57 99 23 202 46 230 52 90 19 285 130 415 236 129 106 359 368 344 394 -4 6
-4 9 1 5 5 -5 20 9 33 30 14 20 29 39 32 42 4 3 28 44 54 92 50 94 60 150 28
167 -32 17 -364 13 -677 -9 -77 -5 -153 -9 -170 -9 -16 1 -34 1 -40 0 -5 0
-55 -3 -109 -6 -121 -7 -296 -40 -391 -75 -59 -22 -125 -55 -125 -62 0 -5 -4
-7 -9 -3 -15 9 -208 -97 -389 -212 -90 -58 -167 -102 -170 -98 -4 3 -8 51 -10
106 -3 96 -3 99 20 109 13 6 32 24 43 40 11 16 22 28 26 27 3 -1 30 19 58 46
29 26 54 47 57 47 3 0 24 21 47 46 l42 46 130 14 c144 15 225 31 225 45 0 4 6
6 14 3 7 -3 78 11 157 30 184 44 262 60 273 57 25 -6 355 94 367 112 3 5 9 8
13 7 4 -1 20 3 36 9 17 5 34 11 38 12 13 3 105 40 161 65 101 45 121 57 114
67 -3 6 -1 7 5 3 17 -10 215 95 392 209 36 23 92 57 125 75 71 39 96 59 89 71
-3 5 2 6 10 3 9 -3 29 8 51 30 20 20 37 36 39 36 6 0 52 40 119 104 34 32 100
93 146 135 98 88 243 259 234 275 -3 6 -3 8 2 4 4 -4 44 39 89 95 44 56 89
111 99 122 20 22 46 70 54 100 15 59 15 77 -3 97 -17 19 -26 20 -99 13 -44 -3
-87 -6 -95 -6 -49 0 -286 -32 -288 -40 -2 -5 -7 -7 -12 -4 -13 8 -147 -13
-220 -34 -36 -11 -78 -22 -93 -25 -15 -4 -26 -10 -23 -14 2 -4 -15 -8 -38 -8
-22 -1 -88 -20 -146 -42 -129 -49 -372 -166 -365 -175 3 -4 2 -5 -1 -2 -6 4
-68 -27 -119 -61 -14 -9 -22 -21 -18 -27 3 -6 1 -7 -5 -3 -6 4 -26 -1 -44 -10
l-33 -17 20 23 c11 12 50 47 86 76 36 29 74 60 83 69 9 9 16 13 16 9 0 -3 7
-1 15 6 8 7 12 17 8 23 -3 5 -2 7 4 4 13 -8 185 142 177 155 -4 6 -2 8 4 4 5
-3 23 5 39 18 42 36 112 106 105 106 -4 0 10 11 31 26 21 14 35 29 32 35 -4 5
-3 8 2 7 11 -4 163 146 163 161 0 7 4 10 9 7 11 -7 113 109 104 118 -3 3 -1 6
4 6 6 0 39 33 73 73 34 39 83 96 108 126 57 66 69 85 142 231 70 139 122 262
124 294 0 13 4 22 7 20 4 -2 12 18 19 44 7 26 23 85 37 131 13 46 21 86 18 89
-3 3 0 11 5 17 12 15 37 140 35 173 -1 12 2 22 5 22 9 0 19 61 26 154 3 39 7
77 10 85 12 35 14 80 4 86 -5 3 -24 -1 -42 -9 -17 -9 -35 -16 -40 -16 -45 0
-412 -176 -401 -193 3 -6 1 -7 -5 -3 -10 6 -153 -88 -160 -106 -2 -4 -9 -8
-15 -8 -7 0 -31 -17 -54 -38 -23 -20 -63 -53 -88 -72 -56 -43 -247 -237 -300
-305 -22 -27 -72 -87 -113 -132 -44 -50 -71 -87 -66 -94 4 -7 3 -9 -4 -5 -6 3
-26 -14 -46 -41 -20 -27 -40 -53 -44 -59 -5 -5 -22 -30 -38 -55 -16 -24 -34
-50 -41 -57 -31 -33 -123 -184 -118 -192 4 -6 2 -9 -4 -8 -6 2 -21 -15 -34
-37 -12 -22 -29 -48 -38 -58 -9 -10 -25 -35 -35 -55 -10 -20 -24 -44 -30 -52
-7 -8 -25 -41 -42 -72 -16 -32 -40 -70 -51 -87 -12 -16 -21 -33 -21 -37 0 -10
-84 -134 -88 -129 -2 1 3 38 11 81 17 93 16 83 26 204 9 121 5 215 -14 310 -8
41 -19 113 -25 160 -5 47 -14 105 -19 130 -5 25 -11 61 -14 80 -16 102 -30
166 -55 256 -27 94 -30 99 -62 108 -30 9 -35 7 -61 -22 -16 -18 -29 -30 -29
-28 0 8 -88 -82 -162 -166 -40 -44 -82 -93 -95 -106 -13 -14 -22 -31 -19 -38
3 -7 0 -11 -7 -9 -22 8 -282 -370 -290 -421 -1 -11 -12 -35 -23 -54 -46 -76
-124 -336 -127 -420 -1 -26 -5 -46 -9 -43 -5 2 -8 -11 -8 -29 -1 -18 -7 -71
-14 -118 -7 -47 -12 -101 -12 -122 1 -20 -2 -34 -6 -31 -5 2 -8 -44 -8 -104
-1 -59 -3 -133 -6 -163 -3 -30 -7 -118 -9 -195 -7 -242 -13 -353 -17 -362 -3
-4 -5 -24 -7 -43 -1 -19 -9 -111 -17 -205 -8 -93 -16 -176 -16 -183 -1 -6 -3
-10 -5 -8 -6 5 -133 -131 -133 -142 0 -5 -7 -9 -15 -9 -12 0 -15 18 -16 96 -2
219 1 262 25 310 32 62 70 173 85 246 7 33 17 70 22 83 5 13 9 38 9 57 0 18 7
60 15 92 16 66 21 227 10 363 -2 19 -6 76 -9 127 -8 122 -62 402 -82 424 -9
10 -28 20 -43 24 l-26 5 2 1233 c1 677 3 1243 3 1257 1 14 1 66 1 115 -1 50 1
152 3 227 3 94 1 141 -7 151 -14 18 -177 57 -233 57 -44 0 -327 -94 -317 -104
4 -4 0 -4 -8 -1 -15 6 -81 -14 -247 -75 -104 -38 -112 -38 -112 -1 0 52 -45
77 -90 49 -10 -7 -22 -10 -25 -7 -3 3 -6 46 -7 94 -3 84 -5 90 -28 103 -25 14
-29 12 -107 -47 -45 -33 -84 -61 -87 -61 -4 0 -6 36 -6 79 0 98 -3 107 -45
121 -31 10 -40 8 -117 -37 -46 -26 -85 -51 -86 -56 -2 -4 -7 -5 -11 -2 -5 2
-26 -4 -47 -14 -22 -10 -54 -22 -73 -26 -19 -4 -50 -14 -70 -23 -20 -8 -42
-17 -49 -18 -7 -1 -43 -11 -80 -22 -62 -19 -144 -37 -217 -48 -16 -2 -57 -9
-90 -14 -104 -18 -126 -20 -300 -26 -184 -7 -275 1 -490 41 -71 13 -181 33
-243 45 -62 12 -116 19 -121 15 -5 -3 -11 -1 -13 4 -9 27 -423 38 -462 13 -6
-3 -19 -5 -28 -4 -10 2 -18 0 -18 -5 0 -4 -12 -9 -27 -9 -16 -1 -45 -5 -67 -9
l-38 -8 7 44 c7 41 34 150 70 282 9 32 13 63 9 69 -4 6 -3 8 2 5 6 -3 25 27
43 66 19 40 44 86 57 103 13 17 24 34 24 38 0 4 11 23 25 43 13 20 21 41 18
46 -3 6 -1 7 4 4 6 -4 18 4 26 17 9 13 23 31 32 40 9 9 14 16 11 16 -3 0 5 10
17 23 53 55 84 97 78 103 -3 4 -1 4 6 0 22 -12 87 24 135 74 62 65 71 83 71
149 0 89 -30 140 -153 261 -59 59 -111 116 -114 128 -4 12 -12 22 -17 22 -6 0
-7 4 -4 10 4 6 72 9 173 7 143 -2 172 0 199 16 56 30 65 64 33 129 -11 23 -20
47 -20 53 0 6 42 31 93 56 50 24 91 49 90 55 -1 7 4 11 11 10 22 -2 102 80
126 129 20 41 22 57 17 125 -7 86 -41 194 -81 258 -29 46 -31 63 -15 127 14
57 -9 144 -48 175 -61 48 -190 65 -339 45 l-99 -13 -60 28 c-126 59 -160 64
-405 65 -130 0 -255 -5 -295 -12 -38 -7 -99 -15 -135 -18 -36 -3 -98 -10 -138
-16 -40 -5 -93 -9 -118 -9 -24 0 -44 -3 -44 -7 0 -10 -233 -6 -380 6 -77 6
-140 18 -188 35 -40 13 -72 22 -72 18 0 -4 -5 1 -11 11 -12 21 -28 22 -35 2z
m-4748 -6549 c33 -24 74 -51 90 -60 41 -23 65 -39 84 -56 9 -8 30 -26 46 -39
16 -13 47 -40 69 -59 22 -19 64 -55 94 -81 29 -25 100 -93 158 -151 58 -58
109 -104 115 -102 5 1 6 -3 3 -9 -4 -6 8 -27 27 -47 19 -21 45 -51 56 -68 21
-31 22 -32 2 -37 -11 -3 -18 -2 -15 2 2 5 -21 14 -53 21 -34 7 -80 28 -113 50
-32 22 -60 36 -64 32 -4 -4 -5 -2 -4 3 4 12 -50 95 -61 95 -4 0 -34 32 -66 71
-116 141 -228 259 -245 259 -5 0 -9 5 -9 11 0 5 -43 52 -95 104 -52 51 -95 96
-95 99 0 13 19 4 76 -38z m11574 -5 c0 -5 -7 -14 -15 -21 -8 -7 -12 -16 -9
-21 3 -5 -1 -6 -8 -4 -12 5 -60 -42 -342 -332 -17 -18 -28 -33 -25 -33 3 0
-53 -60 -125 -134 -95 -96 -141 -137 -168 -145 -21 -7 -38 -17 -38 -21 0 -5
-6 -7 -13 -4 -7 2 -32 -2 -55 -10 -37 -13 -42 -13 -42 0 0 19 50 94 63 94 6 0
8 2 5 5 -7 8 243 257 346 345 49 41 118 95 155 120 36 26 65 52 63 59 -1 7 1
10 6 7 5 -3 47 19 93 48 82 53 109 65 109 47z m-11026 -24 c4 4 5 1 2 -7 -3
-10 21 -37 65 -75 39 -33 100 -90 136 -127 37 -37 71 -64 76 -61 6 3 7 1 3 -5
-4 -7 4 -31 18 -55 26 -45 34 -87 16 -87 -5 0 -10 4 -10 9 0 4 -41 50 -91 102
-50 52 -104 113 -120 137 -17 23 -33 42 -37 42 -4 0 -15 14 -24 31 -11 18 -22
27 -29 23 -7 -4 -9 -3 -6 3 3 5 -3 22 -14 39 -22 34 -25 51 -6 35 8 -6 17 -8
21 -4z m10440 -38 c-10 -19 -28 -45 -41 -59 -12 -14 -46 -54 -73 -90 -53 -68
-239 -260 -252 -260 -38 0 42 120 145 220 54 52 129 125 165 162 37 36 68 65
70 64 1 -2 -5 -18 -14 -37z m-6100 -1638 c38 -18 96 -94 96 -126 0 -8 8 -43
17 -76 13 -48 26 -70 61 -102 25 -23 53 -50 63 -61 36 -38 134 -54 318 -54
159 1 174 -1 196 -20 13 -11 32 -25 43 -31 44 -24 152 -6 152 25 0 22 36 26
218 25 174 0 268 11 255 32 -3 6 -1 7 6 3 14 -9 87 33 122 71 25 26 45 69 41
86 -1 4 2 7 7 7 11 0 28 43 36 91 3 21 14 48 25 62 11 13 17 26 15 29 -3 3 11
13 30 24 19 10 35 21 35 24 0 8 47 7 54 -1 7 -7 -9 -41 -42 -87 -13 -17 -20
-37 -16 -43 4 -7 3 -9 -3 -6 -5 4 -16 -6 -24 -21 -7 -15 -21 -39 -31 -54 -10
-14 -18 -33 -18 -42 0 -9 -4 -16 -9 -16 -8 0 -67 -140 -74 -177 -2 -10 -7 -25
-10 -33 -37 -95 -14 -694 35 -890 27 -110 6 -209 -59 -273 -39 -39 -65 -54
-148 -87 -69 -28 -252 -84 -385 -119 -154 -41 -155 -41 -210 -26 -30 9 -104
29 -165 44 -104 28 -144 40 -190 60 -11 5 -51 19 -90 32 -114 37 -150 57 -190
100 -74 82 -77 110 -43 324 11 72 22 148 23 170 2 22 7 49 11 60 9 21 12 459
5 554 -6 72 -25 143 -36 134 -4 -4 -5 -3 -2 3 9 15 -24 110 -55 160 -13 21
-30 51 -37 66 -8 15 -19 25 -24 21 -6 -3 -7 -1 -3 6 5 7 -4 28 -21 49 -15 20
-28 39 -28 42 -1 3 -6 15 -13 26 -20 38 2 43 62 15z m-1039 -183 c2 -13 6 -57
8 -98 4 -72 10 -115 24 -170 3 -14 7 -29 7 -35 2 -26 29 -74 39 -68 6 3 7 1 3
-5 -9 -16 54 -142 95 -191 13 -15 29 -35 34 -44 40 -64 117 -168 150 -204 22
-23 45 -50 51 -59 6 -10 18 -22 28 -28 10 -6 62 -55 114 -109 56 -56 102 -95
110 -92 7 2 11 1 8 -4 -7 -11 121 -124 132 -117 5 3 9 0 9 -7 0 -7 4 -20 8
-29 9 -22 0 -22 -54 -3 -22 8 -41 11 -41 7 0 -4 -4 -2 -8 3 -9 13 -45 29 -137
62 -38 14 -82 34 -97 44 -14 11 -31 19 -37 19 -6 0 -69 36 -140 79 -71 44
-132 77 -134 74 -3 -2 -8 4 -11 14 -3 10 -24 28 -45 40 -30 17 -47 38 -71 88
-17 36 -37 65 -42 65 -6 0 -9 3 -5 6 3 3 -6 32 -20 63 -40 87 -83 204 -83 224
0 10 -3 16 -7 14 -5 -3 -9 50 -10 117 -1 66 -5 169 -9 228 l-7 108 34 14 c19
9 49 15 66 16 26 0 34 -5 38 -22z m3908 -11 c22 -14 22 -15 14 -227 -7 -179
-12 -223 -29 -269 -11 -31 -21 -66 -22 -78 0 -12 -2 -20 -4 -18 -2 2 -37 -64
-79 -146 -70 -139 -79 -152 -134 -194 -33 -25 -62 -45 -65 -45 -4 0 -28 -16
-55 -36 -27 -20 -86 -56 -132 -80 -45 -24 -95 -51 -112 -60 -26 -15 -205 -82
-277 -104 -15 -5 -30 -5 -33 0 -7 11 55 87 77 95 9 3 37 25 62 48 25 23 62 56
81 72 19 17 35 36 35 43 0 6 4 12 9 12 19 0 222 211 215 223 -4 7 -4 9 0 5 8
-6 54 41 72 74 5 9 28 36 51 61 41 43 159 253 166 293 1 10 5 24 9 29 13 22
30 133 33 212 1 46 8 89 14 97 14 17 74 13 104 -7z m-4715 -159 c18 -15 29
-28 25 -28 -4 0 2 -6 12 -14 11 -8 23 -12 28 -9 4 2 6 0 5 -5 -3 -10 84 -92
97 -92 3 0 27 -15 53 -32 26 -18 51 -31 57 -30 5 2 7 0 3 -3 -4 -4 10 -20 31
-36 22 -15 52 -44 68 -65 15 -20 36 -45 46 -55 9 -11 17 -21 17 -23 0 -14 69
-104 76 -98 4 4 4 2 0 -5 -3 -6 3 -28 15 -48 12 -20 19 -39 15 -42 -3 -3 -23
2 -43 11 -21 9 -42 17 -48 17 -5 0 -17 6 -25 14 -8 7 -42 26 -75 42 -78 37
-153 81 -188 110 -16 13 -33 21 -38 17 -5 -3 -9 -1 -9 4 0 6 -21 23 -47 38
-27 15 -77 48 -112 73 -35 25 -68 45 -73 43 -5 -1 -7 1 -4 6 3 5 -16 29 -42
53 -63 59 -122 126 -122 138 0 13 64 31 110 31 19 1 49 7 65 14 38 16 62 10
103 -26z m5547 -3 c139 -22 161 -37 110 -77 -14 -11 -23 -24 -19 -29 3 -5 2
-8 -3 -7 -4 2 -34 -23 -66 -55 -32 -32 -75 -69 -95 -82 -20 -14 -54 -36 -75
-50 -22 -15 -35 -30 -31 -37 4 -7 3 -8 -4 -4 -6 4 -28 -4 -49 -17 -21 -13 -41
-24 -44 -23 -4 1 -15 -7 -26 -16 -19 -18 -182 -118 -191 -118 -3 0 -40 -18
-83 -40 -43 -22 -86 -40 -94 -40 -30 0 -23 13 85 180 19 29 34 57 32 62 -1 4
2 7 6 6 5 -2 31 20 59 49 27 28 76 68 108 89 32 20 85 58 117 83 158 123 184
141 203 137 11 -3 38 -7 60 -11z"/>
<path d="M13085 12765 c-30 -31 -33 -73 -5 -103 11 -12 20 -25 20 -31 0 -8
-31 -48 -90 -112 -14 -15 -39 -45 -57 -66 -17 -21 -41 -49 -53 -63 -12 -14
-38 -45 -58 -69 -21 -24 -46 -53 -57 -66 -11 -12 -40 -46 -65 -75 -25 -29 -61
-70 -81 -91 -36 -38 -37 -39 -65 -24 -41 21 -57 19 -87 -13 -45 -47 -37 -68
61 -169 48 -50 108 -114 135 -142 56 -60 89 -66 131 -25 31 32 32 49 7 90
l-19 31 25 29 c13 16 53 61 87 99 35 39 87 97 116 130 29 33 60 67 69 76 9 9
48 51 86 94 39 43 84 94 101 113 l31 35 22 -22 c26 -26 71 -27 98 -3 20 17 27
38 24 73 -1 17 -82 109 -213 241 -96 97 -119 106 -163 63z"/>
<path d="M13636 12139 c-28 -32 -27 -68 0 -100 8 -8 14 -19 14 -24 0 -8 -78
-85 -265 -260 -64 -60 -142 -135 -174 -165 -31 -30 -69 -66 -83 -78 l-26 -24
-29 21 c-51 36 -115 1 -115 -64 0 -19 43 -88 72 -115 7 -7 149 -194 181 -239
49 -69 229 -332 229 -335 0 -11 195 -325 211 -338 22 -19 65 -15 90 8 24 21
29 59 12 91 -14 26 -13 29 14 51 15 13 46 36 68 50 22 15 45 32 51 37 6 6 37
28 70 50 32 22 64 45 70 50 13 11 7 7 193 139 l133 96 22 -32 c29 -44 73 -48
109 -12 15 15 27 37 27 49 0 21 -110 215 -199 350 -25 39 -51 80 -58 93 -7 12
-37 59 -68 103 -30 44 -55 84 -55 89 0 5 -3 10 -8 12 -4 2 -30 35 -57 73 -27
39 -53 75 -57 80 -139 186 -203 272 -214 283 -8 7 -14 16 -14 20 0 4 -14 22
-31 40 -40 43 -78 43 -113 1z m224 -388 c0 -5 6 -16 14 -24 8 -8 24 -29 35
-47 15 -25 17 -36 8 -44 -11 -11 -154 -132 -281 -240 -27 -22 -61 -51 -74 -64
-14 -12 -38 -33 -54 -45 -16 -12 -39 -31 -52 -42 -57 -51 -100 -85 -105 -85
-8 0 -30 26 -54 63 l-18 28 58 55 c31 31 84 79 116 107 33 29 76 67 96 85 20
19 66 62 104 95 37 34 94 86 125 114 54 50 82 65 82 44z m284 -415 c20 -30 36
-61 36 -69 0 -8 -57 -58 -127 -111 -71 -52 -132 -99 -138 -103 -5 -5 -28 -22
-50 -38 -22 -17 -44 -33 -50 -38 -30 -23 -87 -65 -111 -82 -15 -11 -32 -25
-38 -30 -6 -6 -26 -21 -44 -34 -32 -23 -34 -23 -53 -5 -12 10 -27 34 -35 54
-14 34 -14 35 12 54 15 11 37 30 50 43 13 13 26 23 29 23 3 0 13 8 23 18 11 9
28 24 38 32 47 37 119 95 124 100 3 3 25 21 50 40 25 19 54 42 65 52 61 50
180 147 182 148 0 0 17 -24 37 -54z"/>
<path d="M13034 12050 c-11 -4 -43 -34 -72 -66 -58 -65 -65 -95 -29 -134 12
-14 62 -71 110 -127 110 -128 119 -130 207 -45 82 81 82 96 -5 199 -150 179
-166 191 -211 173z"/>
<path d="M14265 10449 c-196 -31 -385 -199 -411 -366 -15 -95 29 -198 103
-244 75 -47 209 -58 246 -21 23 24 25 78 3 100 -9 9 -33 21 -54 27 -43 12 -52
38 -28 82 29 55 129 144 200 179 30 15 31 15 10 -3 -77 -65 -65 -209 19 -228
19 -5 34 -18 44 -41 14 -28 63 -61 75 -49 1 2 18 5 36 8 25 4 35 1 42 -14 9
-17 -2 -25 -107 -78 -65 -33 -153 -77 -195 -99 -48 -24 -82 -36 -90 -31 -36
23 -90 2 -106 -42 -9 -23 0 -52 84 -250 18 -43 49 -60 84 -47 33 12 60 38 60
57 0 10 26 30 68 51 37 19 69 35 72 36 3 0 59 27 124 58 92 44 121 54 127 44
13 -20 12 -22 -31 -62 -47 -43 -53 -81 -17 -114 30 -29 43 -28 120 8 36 17 69
30 74 30 5 0 19 9 31 20 29 27 28 66 -3 135 -13 30 -24 56 -24 58 1 5 -15 45
-32 84 -10 24 -19 46 -19 51 0 6 -40 102 -107 254 -17 37 -42 54 -75 49 -15
-2 -16 3 -7 31 36 128 -48 285 -171 317 -57 16 -92 18 -145 10z"/>
<path d="M1080 10357 c-64 -13 -110 -47 -147 -107 -90 -149 -53 -365 73 -425
44 -21 115 -16 144 10 11 10 20 16 21 14 0 -2 2 -14 5 -27 2 -13 11 -36 19
-52 20 -40 21 -40 -27 -23 -56 19 -156 12 -201 -14 l-33 -20 -13 41 c-36 117
-167 201 -287 185 -156 -21 -263 -157 -277 -353 -3 -34 -10 -54 -24 -65 -30
-23 -44 -57 -37 -85 6 -25 24 -36 134 -81 36 -15 85 -36 109 -47 61 -27 100
-27 123 3 23 27 18 78 -8 94 -85 53 -105 70 -124 110 -18 37 -19 48 -9 67 24
47 55 49 133 12 52 -25 104 -66 107 -85 1 -5 2 -15 3 -21 1 -7 -4 -30 -11 -52
-19 -55 -9 -80 43 -107 60 -30 91 -20 120 40 26 55 57 81 94 81 64 0 153 -61
169 -117 14 -50 -13 -92 -85 -128 -65 -33 -77 -59 -54 -116 17 -39 53 -49 115
-31 98 28 164 92 202 195 49 135 50 233 5 327 l-27 57 36 -9 c108 -28 196 60
188 188 -3 42 -1 45 39 71 75 49 90 135 41 236 -28 58 -55 73 -102 58 -33 -11
-39 -9 -123 42 -219 132 -261 149 -334 134z"/>
<path d="M14321 9360 c-61 -20 -84 -39 -107 -88 -24 -52 -25 -95 -2 -141 64
-129 276 -88 309 60 28 122 -78 211 -200 169z"/>
</g>
</svg>
